<mxfile host="app.diagrams.net" modified="2021-09-14T10:13:06.792Z" agent="5.0 (Macintosh; Intel Mac OS X 10_15_7) AppleWebKit/537.36 (KHTML, like Gecko) Chrome/93.0.4577.63 Safari/537.36" etag="kc-Vc-ICspfxXqd2JGXV" version="15.2.5" type="github">
  <diagram id="PUav7ms7d3gT_kqhUBGY" name="Page-1">
    <mxGraphModel dx="708" dy="625" grid="1" gridSize="10" guides="1" tooltips="1" connect="1" arrows="1" fold="1" page="1" pageScale="1" pageWidth="827" pageHeight="1169" math="0" shadow="0">
      <root>
        <mxCell id="0" />
        <mxCell id="1" parent="0" />
        <mxCell id="K3yAakwGBToCEmTK0skL-2" value="" style="rounded=0;whiteSpace=wrap;html=1;strokeColor=#000000;strokeWidth=1;" parent="1" vertex="1">
          <mxGeometry x="185" y="250" width="150" height="90" as="geometry" />
        </mxCell>
        <mxCell id="K3yAakwGBToCEmTK0skL-3" value="Source" style="ellipse;whiteSpace=wrap;html=1;aspect=fixed;" parent="1" vertex="1">
          <mxGeometry x="60" y="255.5" width="80" height="80" as="geometry" />
        </mxCell>
        <mxCell id="K3yAakwGBToCEmTK0skL-4" style="edgeStyle=orthogonalEdgeStyle;rounded=0;orthogonalLoop=1;jettySize=auto;html=1;exitX=1;exitY=0.5;exitDx=0;exitDy=0;startArrow=none;startFill=0;endArrow=classicThin;endFill=1;endSize=11;strokeWidth=1;curved=1;" parent="1" source="K3yAakwGBToCEmTK0skL-6" edge="1">
          <mxGeometry relative="1" as="geometry">
            <mxPoint x="380" y="250" as="targetPoint" />
          </mxGeometry>
        </mxCell>
        <mxCell id="K3yAakwGBToCEmTK0skL-5" style="edgeStyle=orthogonalEdgeStyle;curved=1;rounded=0;orthogonalLoop=1;jettySize=auto;html=1;exitX=0.5;exitY=1;exitDx=0;exitDy=0;fontSize=9;startArrow=none;startFill=0;endArrow=classicThin;endFill=1;endSize=11;strokeWidth=1;strokeColor=#454545;" parent="1" source="K3yAakwGBToCEmTK0skL-6" edge="1">
          <mxGeometry relative="1" as="geometry">
            <mxPoint x="380" y="390" as="targetPoint" />
          </mxGeometry>
        </mxCell>
        <mxCell id="K3yAakwGBToCEmTK0skL-6" value="&lt;font style=&quot;font-size: 9px&quot;&gt;Interaction&lt;/font&gt;" style="shape=step;perimeter=stepPerimeter;whiteSpace=wrap;html=1;fixedSize=1;size=10;strokeColor=#000000;strokeWidth=1;" parent="1" vertex="1">
          <mxGeometry x="225" y="280" width="70" height="31" as="geometry" />
        </mxCell>
        <mxCell id="K3yAakwGBToCEmTK0skL-7" value="" style="edgeStyle=orthogonalEdgeStyle;rounded=0;orthogonalLoop=1;jettySize=auto;html=1;exitX=1;exitY=0.5;exitDx=0;exitDy=0;curved=1;endArrow=classicThin;entryX=0;entryY=0.5;entryDx=0;entryDy=0;endFill=1;endSize=11;" parent="1" source="K3yAakwGBToCEmTK0skL-3" target="K3yAakwGBToCEmTK0skL-6" edge="1">
          <mxGeometry relative="1" as="geometry">
            <mxPoint x="320" y="230" as="targetPoint" />
            <Array as="points">
              <mxPoint x="170" y="296" />
              <mxPoint x="170" y="296" />
            </Array>
            <mxPoint x="90" y="150" as="sourcePoint" />
          </mxGeometry>
        </mxCell>
        <mxCell id="K3yAakwGBToCEmTK0skL-8" value="Energy Transformation Process" style="text;html=1;strokeColor=none;fillColor=none;align=left;verticalAlign=middle;whiteSpace=wrap;rounded=0;fontSize=9;" parent="1" vertex="1">
          <mxGeometry x="187" y="299" width="70" height="43" as="geometry" />
        </mxCell>
        <mxCell id="K3yAakwGBToCEmTK0skL-9" style="edgeStyle=orthogonalEdgeStyle;rounded=0;orthogonalLoop=1;jettySize=auto;html=1;startArrow=none;startFill=0;endArrow=classicThin;endFill=1;endSize=11;strokeWidth=1;curved=1;entryX=0.5;entryY=0;entryDx=0;entryDy=0;" parent="1" target="K3yAakwGBToCEmTK0skL-6" edge="1">
          <mxGeometry relative="1" as="geometry">
            <mxPoint x="390" y="260" as="targetPoint" />
            <mxPoint x="350" y="210" as="sourcePoint" />
          </mxGeometry>
        </mxCell>
        <mxCell id="K3yAakwGBToCEmTK0skL-10" value="Store" style="group;fillColor=#FFFFFF;strokeWidth=11;verticalAlign=middle;" parent="1" vertex="1" connectable="0">
          <mxGeometry x="346" y="170" width="80" height="80" as="geometry" />
        </mxCell>
        <mxCell id="K3yAakwGBToCEmTK0skL-11" value="" style="endArrow=none;html=1;" parent="K3yAakwGBToCEmTK0skL-10" edge="1">
          <mxGeometry width="50" height="50" relative="1" as="geometry">
            <mxPoint y="30" as="sourcePoint" />
            <mxPoint x="40" as="targetPoint" />
          </mxGeometry>
        </mxCell>
        <mxCell id="K3yAakwGBToCEmTK0skL-12" value="" style="curved=1;endArrow=none;html=1;endFill=0;" parent="K3yAakwGBToCEmTK0skL-10" edge="1">
          <mxGeometry width="50" height="50" relative="1" as="geometry">
            <mxPoint y="30" as="sourcePoint" />
            <mxPoint x="80" y="30" as="targetPoint" />
            <Array as="points">
              <mxPoint y="50" />
              <mxPoint x="20" y="80" />
              <mxPoint x="60" y="80" />
              <mxPoint x="80" y="50" />
            </Array>
          </mxGeometry>
        </mxCell>
        <mxCell id="K3yAakwGBToCEmTK0skL-13" value="" style="endArrow=none;html=1;" parent="K3yAakwGBToCEmTK0skL-10" edge="1">
          <mxGeometry width="50" height="50" relative="1" as="geometry">
            <mxPoint x="80" y="30" as="sourcePoint" />
            <mxPoint x="40" as="targetPoint" />
          </mxGeometry>
        </mxCell>
        <mxCell id="K3yAakwGBToCEmTK0skL-14" style="edgeStyle=orthogonalEdgeStyle;rounded=0;orthogonalLoop=1;jettySize=auto;html=1;startArrow=none;startFill=0;endArrow=classicThin;endFill=1;endSize=11;strokeWidth=1;curved=1;entryX=0;entryY=0.465;entryDx=0;entryDy=0;entryPerimeter=0;" parent="1" edge="1">
          <mxGeometry relative="1" as="geometry">
            <mxPoint x="528" y="251.995" as="targetPoint" />
            <mxPoint x="418" y="232" as="sourcePoint" />
            <Array as="points">
              <mxPoint x="418" y="252" />
            </Array>
          </mxGeometry>
        </mxCell>
        <mxCell id="K3yAakwGBToCEmTK0skL-15" value="Released&lt;br&gt;Materials" style="text;html=1;strokeColor=none;fillColor=none;align=left;verticalAlign=middle;whiteSpace=wrap;rounded=0;fontSize=9;" parent="1" vertex="1">
          <mxGeometry x="530" y="230" width="70" height="43" as="geometry" />
        </mxCell>
        <mxCell id="K3yAakwGBToCEmTK0skL-16" value="Used energy&lt;br&gt;Degraded availability" style="text;html=1;strokeColor=none;fillColor=none;align=left;verticalAlign=middle;whiteSpace=wrap;rounded=0;fontSize=9;" parent="1" vertex="1">
          <mxGeometry x="410" y="360" width="99" height="43" as="geometry" />
        </mxCell>
        <mxCell id="K3yAakwGBToCEmTK0skL-17" value="" style="group;fontSize=9;strokeWidth=0;align=left;verticalAlign=middle;" parent="1" vertex="1" connectable="0">
          <mxGeometry x="360" y="360" width="40" height="46" as="geometry" />
        </mxCell>
        <mxCell id="K3yAakwGBToCEmTK0skL-18" value="" style="endArrow=none;html=1;" parent="K3yAakwGBToCEmTK0skL-17" edge="1">
          <mxGeometry y="-50" width="50" height="50" as="geometry">
            <mxPoint y="30" as="sourcePoint" />
            <mxPoint x="40" y="30" as="targetPoint" />
          </mxGeometry>
        </mxCell>
        <mxCell id="K3yAakwGBToCEmTK0skL-19" value="" style="endArrow=none;html=1;" parent="K3yAakwGBToCEmTK0skL-17" edge="1">
          <mxGeometry x="-5" y="-52" width="50" height="50" as="geometry">
            <mxPoint x="5" y="38" as="sourcePoint" />
            <mxPoint x="35" y="38" as="targetPoint" />
          </mxGeometry>
        </mxCell>
        <mxCell id="K3yAakwGBToCEmTK0skL-20" value="" style="endArrow=none;html=1;" parent="K3yAakwGBToCEmTK0skL-17" edge="1">
          <mxGeometry x="-5" y="-54" width="50" height="50" as="geometry">
            <mxPoint x="15" y="46" as="sourcePoint" />
            <mxPoint x="25" y="46" as="targetPoint" />
          </mxGeometry>
        </mxCell>
        <mxCell id="K3yAakwGBToCEmTK0skL-21" style="edgeStyle=orthogonalEdgeStyle;curved=1;rounded=0;orthogonalLoop=1;jettySize=auto;html=1;fontSize=9;startArrow=none;startFill=0;endArrow=classicThin;endFill=1;endSize=11;strokeWidth=1;strokeColor=#454545;" parent="1" edge="1">
          <mxGeometry relative="1" as="geometry">
            <mxPoint x="380" y="390" as="targetPoint" />
            <mxPoint x="460" y="250" as="sourcePoint" />
            <Array as="points">
              <mxPoint x="460" y="321" />
              <mxPoint x="380" y="321" />
            </Array>
          </mxGeometry>
        </mxCell>
        <mxCell id="K3yAakwGBToCEmTK0skL-34" value="" style="group" parent="1" vertex="1" connectable="0">
          <mxGeometry x="153" y="170" width="60" height="60" as="geometry" />
        </mxCell>
        <mxCell id="K3yAakwGBToCEmTK0skL-35" value="" style="endArrow=none;html=1;" parent="K3yAakwGBToCEmTK0skL-34" edge="1">
          <mxGeometry width="50" height="50" relative="1" as="geometry">
            <mxPoint y="22.5" as="sourcePoint" />
            <mxPoint x="30" as="targetPoint" />
          </mxGeometry>
        </mxCell>
        <mxCell id="K3yAakwGBToCEmTK0skL-36" value="" style="curved=1;endArrow=none;html=1;endFill=0;" parent="K3yAakwGBToCEmTK0skL-34" edge="1">
          <mxGeometry width="50" height="50" relative="1" as="geometry">
            <mxPoint y="22.5" as="sourcePoint" />
            <mxPoint x="60" y="22.5" as="targetPoint" />
            <Array as="points">
              <mxPoint y="37.5" />
              <mxPoint x="15" y="60" />
              <mxPoint x="45" y="60" />
              <mxPoint x="60" y="37.5" />
            </Array>
          </mxGeometry>
        </mxCell>
        <mxCell id="K3yAakwGBToCEmTK0skL-37" value="" style="endArrow=none;html=1;" parent="K3yAakwGBToCEmTK0skL-34" edge="1">
          <mxGeometry width="50" height="50" relative="1" as="geometry">
            <mxPoint x="60" y="22.5" as="sourcePoint" />
            <mxPoint x="30" as="targetPoint" />
          </mxGeometry>
        </mxCell>
        <mxCell id="K3yAakwGBToCEmTK0skL-38" value="Design" style="text;html=1;align=center;verticalAlign=middle;resizable=0;points=[];autosize=1;strokeColor=none;" parent="K3yAakwGBToCEmTK0skL-34" vertex="1">
          <mxGeometry x="5" y="20" width="50" height="20" as="geometry" />
        </mxCell>
        <mxCell id="K3yAakwGBToCEmTK0skL-39" style="edgeStyle=orthogonalEdgeStyle;rounded=0;orthogonalLoop=1;jettySize=auto;html=1;startArrow=none;startFill=0;endArrow=classicThin;endFill=1;endSize=11;strokeWidth=1;curved=1;entryX=0.25;entryY=0;entryDx=0;entryDy=0;" parent="1" target="K3yAakwGBToCEmTK0skL-6" edge="1">
          <mxGeometry relative="1" as="geometry">
            <mxPoint x="150" y="267.97" as="targetPoint" />
            <mxPoint x="210" y="210" as="sourcePoint" />
          </mxGeometry>
        </mxCell>
      </root>
    </mxGraphModel>
  </diagram>
</mxfile>
